<svg width="1024" height="1024" viewBox="0 0 1024 1024" fill="none" xmlns="http://www.w3.org/2000/svg">
<g filter="url(#filter0_i_15_3)">
<rect x="37" y="38" width="949" height="947.644" rx="216.914" fill="white"/>
</g>
<path d="M454.282 687.808C539.294 654.01 613.239 576.356 650.229 493.641C676.606 434.658 689.46 338.267 616.479 307.649C582.586 293.431 544.611 300.806 511.244 313.052C507.364 314.478 490.796 323.21 488.522 322.502C493.724 318.488 507.359 312.171 513.686 308.7C566.273 279.85 646.679 261.857 690.202 315.333C702.087 329.937 705.721 344.278 710.252 362.118C726.678 361.971 753.811 356.721 753.838 379.169C753.855 392.497 754.112 405.785 754.107 419.134L754.059 493.957L754.165 606.184C754.233 624.927 754.393 643.66 754.481 662.407C754.509 668.166 754.377 675.01 750.412 679.378C743.41 687.095 736.144 686.314 726.479 686.273L563.03 686.548L515.532 686.407C509.12 686.405 494.562 686.1 488.991 687.073C481.329 688.411 469.67 693.788 461.08 696.118C458.504 693.564 454.937 691.022 454.282 687.808ZM532.66 664.404C539.058 664.221 545.458 664.166 551.859 664.235L655.312 663.934C673.355 663.945 692.296 664.168 710.315 663.672C714.809 662.948 720.001 662.968 723.186 659.233C725.115 656.971 728.537 653.577 728.867 650.451C729.819 641.415 729.609 631.979 729.619 622.902L729.616 573.308C729.612 516.333 729.77 459.343 729.117 402.373C729 392.128 722.203 385.165 712.08 384.347C710.117 472.295 661.726 552.391 599.561 611.868C579.011 631.5 556.605 649.094 532.66 664.404Z" fill="#31A5C8"/>
<path d="M199 709.825C233.552 710.732 270.625 710.119 305.342 710.15C351.624 710.409 397.906 710.269 444.185 709.731C445.985 715.467 447.54 717.061 451.426 721.406C464.557 721.283 565.113 722.475 570.562 720.101C575.011 718.162 576.381 714.031 578.089 709.869C605.678 710.573 635.277 709.906 663.111 709.91L824.588 709.884C823.672 715.432 823.327 717.151 821.229 722.309C816.99 730.465 810.841 737.601 801.948 740.744C792.285 744.159 756.505 742.491 743.684 742.474L659.327 742.367L363.402 742.419C347.712 742.428 227.511 744.184 220.778 740.899C220.488 740.758 220.207 740.595 219.917 740.453C217.477 739.248 215.176 738.118 212.972 736.485C203.95 729.8 200.644 720.46 199 709.825Z" fill="#025C9E"/>
<path d="M300.898 320.388C306.054 320.23 310.232 320.331 315.396 320.548L318.496 330.172C323.181 333.181 327.487 334.98 332.569 337.211C335.347 335.645 338.38 333.55 341.08 331.782C345.104 334.863 354.381 343.667 357.501 347.515L351.269 356.599C353.331 362.309 355.591 367.07 358.267 372.497L368.275 374.253C368.713 378.759 369.386 383.533 369.46 388.042C369.605 397.021 364.343 397.244 357.509 398.357C353.579 410.125 349.082 410.726 356.728 422.092C355.002 425.389 351.766 429.89 349.262 432.7C343.053 439.674 339.449 438.369 333.644 432.851C327.706 434.663 323.95 436.046 318.226 438.462C317.045 442.003 316.444 445.733 315.724 449.408L307.056 449.942C296.121 450.237 292.332 451.02 291.304 438.851C285.83 436.688 282.036 435.044 276.79 432.409C273.783 434.638 271.264 437.029 267.3 436.551C260.71 435.755 254.53 426.781 250.546 421.684C252.494 419.004 254.488 416.356 256.529 413.742C255.078 409.248 252.269 402.785 250.49 398.127L239.665 395.878C239.682 393 239.781 389.08 239.518 386.304C238.399 374.437 239.246 373.076 250.351 372.024C253.425 366.712 255.193 361.529 257.261 355.774C255.628 352.974 253.269 349.774 251.386 347.065C255.47 342.16 261.65 335.131 266.683 331.449C270.095 332.985 274.33 335.254 277.759 336.96C282.18 334.951 286.15 333.459 290.702 331.759C292.535 327.707 292.134 324.859 294.476 321.644C296.514 320.016 298.213 320.385 300.898 320.388ZM307.642 425.725C330.254 423.883 347.121 404.106 345.373 381.487C343.624 358.867 323.916 341.918 301.289 343.574C278.53 345.241 261.462 365.088 263.222 387.84C264.981 410.59 284.898 427.577 307.642 425.725Z" fill="#025C9E"/>
<path d="M287.736 418.494C284.885 418.025 281.268 414.839 279.051 412.987C268.003 403.757 264.828 387.43 268.564 373.9C271.36 364.104 277.973 355.84 286.917 350.962C296.527 345.748 306.272 345.993 316.421 348.832C315.738 349.306 307.01 348.538 305.272 348.599C302.327 348.727 299.416 349.272 296.625 350.219C287.875 353.227 280.557 360.167 276.571 368.458C272.184 377.653 271.687 388.228 275.191 397.793C278.934 408.062 285.453 414.092 295.061 418.577C290.457 420.149 292.241 417.938 287.736 418.494Z" fill="#025C9E"/>
<path d="M287.736 418.494C292.241 417.938 290.456 420.149 295.06 418.576C301.121 420.224 304.239 420.721 310.662 420.899C305.207 423.492 298.221 422.591 292.658 420.695C290.958 420.103 289.311 419.367 287.736 418.494Z" fill="#0A6FAB"/>
<path d="M275.342 440.526C279.193 440.831 281.032 441.854 284.477 443.4C287.355 451.651 286.44 451.668 293.394 456.61C294.084 461.264 293.751 471.407 293.71 476.567L293.549 509.461L293.295 640.377C293.381 665.674 307.469 664.223 326.796 664.189L358.824 664.212C395.299 664.259 445.605 664.423 482.209 664.423C476.611 669.477 462.551 674.591 456.45 677.302C450.35 680.014 437.697 684.104 430.014 686.612C422.784 686.635 404.73 686.616 396.022 686.612L317.165 686.714C306.447 686.73 292.399 687.411 281.932 686.205C263.974 684.137 267.762 656.373 267.836 644.238L267.977 599.281L268.094 445.261L275.342 440.526Z" fill="#025C9E"/>
<path d="M431.753 334.315C453.124 334.043 442.24 340.849 456.418 349.214C459.166 348.254 461.9 347.259 464.623 346.227C471.306 354.756 476.332 356.581 469.299 366.267C470.807 374.61 469.997 376.626 478.634 379.221C478.835 385.311 478.105 388.566 476.885 394.402C474.514 394.604 471.62 394.562 469.197 394.599C467.052 398.35 464.989 402.632 463.019 406.525L466.889 411.752C462.592 416.206 459.212 418.597 454.013 421.789C451.484 420.107 449.887 418.61 447.652 416.621C439.448 418.847 436.532 418.243 434.872 427.186C430.04 426.869 424.319 425.52 419.49 424.529C419.288 421.762 418.924 418.755 418.648 415.972C413.472 413.932 412.406 413.34 407.696 410.354L402.023 413.827C399.268 411.114 392.916 405.323 392.855 401.722L393.438 400.913L394.216 399.804C397.72 394.901 395.769 390.19 394.85 383.641C391.829 383 391.029 382.918 388.297 381.618C386.553 378.814 386.325 373.6 386.942 370.246C388.554 361.492 389.597 368.816 394.85 365.63C412.7 350.588 389.653 352.622 409.739 339.737C412.923 343.442 418.013 345.338 424.163 343.504C428.691 342.153 430.024 338.334 431.753 334.315ZM436.578 408.937C452.348 407.164 463.736 393.005 462.088 377.221C460.439 361.438 446.371 349.938 430.574 351.46C414.601 353.002 402.942 367.264 404.609 383.225C406.277 399.185 420.63 410.731 436.578 408.937Z" fill="#025C9E"/>
<path d="M426.311 350.711C442.108 349.188 456.176 360.689 457.825 376.472C459.474 392.255 448.086 406.414 432.316 408.187C416.367 409.981 402.014 398.436 400.347 382.475C398.679 366.514 410.338 352.252 426.311 350.711Z" fill="#F4F1F1" fill-opacity="0.01"/>
<path d="M429.912 353.311C433.084 353.132 439.296 353.961 442.377 354.775C439.56 356.271 433.206 354.216 427.547 356.448C421.264 358.928 417.359 361.883 414.23 368.131C410.989 374.589 410.473 382.078 412.797 388.92C415.693 397.262 420.399 400.646 427.719 404.331L436.938 407.209C422.242 406.425 410.888 401.214 407.559 385.417C406.014 378.255 407.522 370.772 411.722 364.767C416.322 358.136 422.18 354.827 429.912 353.311Z" fill="url(#paint0_linear_15_3)"/>
<path d="M394.678 434.63C397.475 434.728 404.559 434.49 405.816 436.621C409.854 443.467 408.513 443.328 415.399 448.016L421.391 445.588C424.51 449.837 425.987 451.844 428.377 456.496L424.676 463.769C426.736 469.992 428.999 467.412 434.492 471.234C434.492 471.234 435.17 468.087 429.887 489.855C425.142 489.177 423.486 488.519 423.014 488.643C421.921 490.006 421.63 490.339 420.8 491.858L417.483 496.919C419.203 499.765 421.206 500.576 420.8 503.31C418.506 506.711 415.63 508.388 411.983 510.898C405.862 501.203 395.259 505.75 391.932 514.716C388.071 514.032 383.335 513.731 380.732 510.898C380.732 503.31 372.129 496.919 365.35 501.06C363.309 501.294 359.699 492.654 358.572 490.892C360.437 489.089 360.508 486.65 362.304 484.781C362.304 471.257 359.998 477.485 354.772 471.257C351.914 454.678 373.09 461.843 366.946 447.07C366.56 445.963 366.752 445.942 366.866 444.627C370.234 439.212 375.742 437.257 381.308 440.81C389.428 443.054 390.835 441.809 394.678 434.63ZM386.155 495.892C375.784 491.9 369.553 484.178 370.341 472.713C370.769 466.192 373.84 460.129 378.842 455.924C385.333 450.467 390.831 450.43 398.601 450.947L400.877 452.155C398.946 452.848 396.191 452.201 394.011 452.301C379.664 452.966 370.453 467.005 374.111 480.611C376.658 490.085 382.4 491.537 389.908 496.228C388.11 496.579 387.976 496.363 386.155 495.892ZM399.064 449.561C386.4 446.411 373.449 453.554 369.358 465.945C365.266 478.336 371.417 491.786 383.465 496.797C392.108 500.39 402.033 498.843 409.172 492.791C416.31 486.739 419.461 477.2 417.33 468.087C415.199 458.974 408.146 451.82 399.064 449.561Z" fill="#025C9E"/>
<path d="M387.24 496.352C376.868 492.361 370.638 484.639 371.425 473.174C371.854 466.653 374.924 460.59 379.927 456.385C386.418 450.928 391.916 450.891 399.685 451.408L401.961 452.616C400.031 453.309 397.276 452.662 395.096 452.762C380.749 453.426 371.538 467.466 375.196 481.072C377.743 490.546 383.484 491.998 390.992 496.689C389.342 496.689 389.06 496.824 387.24 496.352Z" fill="#0A6FAB"/>
<path d="M384.55 497.258C372.502 492.247 366.351 478.797 370.442 466.406C374.534 454.015 387.485 446.872 400.149 450.022L399.685 451.408C391.915 450.891 386.418 450.928 379.927 456.385C374.924 460.59 371.854 466.653 371.425 473.174C370.637 484.639 376.868 492.361 387.24 496.353L384.55 497.258Z" fill="#F4F1F1" fill-opacity="0.0117647"/>
<path d="M502.545 361.421C517.595 361.421 537.314 361.408 552.925 361.421L655.438 361.625C659.555 365.68 663.856 382.793 660.467 382.876C657.077 382.959 637.09 382.793 637.09 382.793H495.069L485.579 376.098C483.546 374.742 481.214 372.811 479.601 371.298C476.767 368.641 476.786 364.81 478.82 363.455C483.565 361.421 495.088 361.421 502.545 361.421Z" fill="#025C9E"/>
<path d="M399.404 701.431C420.673 698.458 434.263 695.018 454.282 687.808C454.937 691.022 458.504 693.564 461.08 696.118C443.629 700.571 417.671 702.745 399.404 701.431Z" fill="#2E8EB0"/>
<defs>
<filter id="filter0_i_15_3" x="37" y="38" width="950.356" height="947.644" filterUnits="userSpaceOnUse" color-interpolation-filters="sRGB">
<feFlood flood-opacity="0" result="BackgroundImageFix"/>
<feBlend mode="normal" in="SourceGraphic" in2="BackgroundImageFix" result="shape"/>
<feColorMatrix in="SourceAlpha" type="matrix" values="0 0 0 0 0 0 0 0 0 0 0 0 0 0 0 0 0 0 127 0" result="hardAlpha"/>
<feMorphology radius="9.49" operator="erode" in="SourceAlpha" result="effect1_innerShadow_15_3"/>
<feOffset dx="1.35571"/>
<feComposite in2="hardAlpha" operator="arithmetic" k2="-1" k3="1"/>
<feColorMatrix type="matrix" values="0 0 0 0 0.00784314 0 0 0 0 0.360784 0 0 0 0 0.619608 0 0 0 1 0"/>
<feBlend mode="normal" in2="shape" result="effect1_innerShadow_15_3"/>
</filter>
<linearGradient id="paint0_linear_15_3" x1="445.744" y1="368.903" x2="408.592" y2="387.209" gradientUnits="userSpaceOnUse">
<stop stop-color="#2E8BC4"/>
<stop offset="1" stop-color="#0970AD"/>
</linearGradient>
</defs>
</svg>
